<svg width="32" height="32" viewBox="0 0 32 32" fill="none" xmlns="http://www.w3.org/2000/svg">
<path d="M26.479 12.8578H25.7002L20.4054 6.65273C20.1135 6.31077 19.7432 6.03471 19.3221 5.84498C18.901 5.65526 18.4398 5.55671 17.9726 5.55664H7.56064C6.28682 5.55664 5.14151 6.28357 4.66839 7.39244L2.33638 12.961C0.99491 13.2868 0 14.4189 0 15.7783V20.8892C0 21.2926 0.348511 21.6193 0.778795 21.6193H3.11518C3.11518 24.0387 5.20722 26 7.78795 26C10.3687 26 12.4607 24.0387 12.4607 21.6193H18.6911C18.6911 24.0387 20.7831 26 23.3638 26C25.9446 26 28.0366 24.0387 28.0366 21.6193H30.373C30.8033 21.6193 31.1518 21.2926 31.1518 20.8892V17.2386C31.1518 14.8191 29.0597 12.8578 26.479 12.8578ZM7.78795 23.8096C6.49953 23.8096 5.45156 22.8272 5.45156 21.6193C5.45156 20.4114 6.49953 19.4289 7.78795 19.4289C9.07636 19.4289 10.1243 20.4114 10.1243 21.6193C10.1243 22.8272 9.07636 23.8096 7.78795 23.8096ZM11.2925 12.8578H5.69153L7.56064 8.47712H11.2925V12.8578ZM13.6289 12.8578V8.47712H17.9726L21.7108 12.8578H13.6289ZM23.3638 23.8096C22.0754 23.8096 21.0275 22.8272 21.0275 21.6193C21.0275 20.4114 22.0754 19.4289 23.3638 19.4289C24.6523 19.4289 25.7002 20.4114 25.7002 21.6193C25.7002 22.8272 24.6523 23.8096 23.3638 23.8096Z" fill="black"/>
</svg>
